<svg xmlns="http://www.w3.org/2000/svg" viewBox="0 1 210.5 35.0099983215332" data-asc="0.72021484375" width="210.5" height="35.0099983215332"><defs/><g fill="#000000"><g transform="translate(0, 0)"><path d="M27.66 13.50Q27.66 20.83 21.41 21.85L28.00 36.01L22.46 36.01L15.97 22.02L5.00 22.02L5.00 36.01L0 36.01L0 1.00L19.17 1.00Q27.66 1.00 27.66 9.52L27.66 13.50M5.00 17.02L18.90 17.02Q20.90 17.02 21.78 16.14Q22.66 15.26 22.66 13.26L22.66 9.77Q22.66 7.76 21.78 6.88Q20.90 6.01 18.90 6.01L5.00 6.01L5.00 17.02ZM36.01 1.00L61.52 1.00L61.52 6.01L41.02 6.01L41.02 16.02L58.52 16.02L58.52 21.02L41.02 21.02L41.02 31.01L61.52 31.01L61.52 36.01L36.01 36.01L36.01 1.00ZM68.53 28.71L75.83 28.71L75.83 36.01L68.53 36.01L68.53 28.71M68.53 10.01L75.83 10.01L75.83 17.31L68.53 17.31L68.53 10.01ZM89.33 1.00L89.33 31.01L107.32 31.01L107.32 36.01L84.33 36.01L84.33 1.00L89.33 1.00ZM128.83 1.00L142.33 36.01L137.33 36.01L134.23 27.95L118.43 27.95L115.33 36.01L110.33 36.01L123.83 1.00L128.83 1.00M120.34 22.95L132.30 22.95L126.34 7.52L120.34 22.95ZM171.14 17.75Q172.24 18.09 173.14 18.73Q174.05 19.36 174.68 20.35Q175.32 21.34 175.66 22.68Q176.00 24.02 176.00 25.76L176.00 27.51Q176.00 36.01 167.50 36.01L148.34 36.01L148.34 1.00L166.50 1.00Q175 1.00 175 9.52L175 10.16Q175 13.11 174.06 14.98Q173.12 16.85 171.14 17.75M153.25 20.75L153.25 31.10L167.36 31.10Q169.34 31.10 170.21 30.18Q171.09 29.25 171.09 27.27L171.09 24.56Q171.09 22.56 170.21 21.66Q169.34 20.75 167.36 20.75L153.25 20.75M153.25 5.91L153.25 15.87L166.70 15.87Q168.51 15.80 169.30 14.88Q170.09 13.96 170.09 12.06L170.09 9.77Q170.09 7.76 169.21 6.84Q168.33 5.91 166.36 5.91L153.25 5.91ZM188.50 21.02Q187.48 21.02 186.56 20.62Q185.64 20.21 184.96 19.54Q184.28 18.87 183.89 17.96Q183.50 17.04 183.50 16.02L183.50 6.01Q183.50 4.98 183.89 4.06Q184.28 3.15 184.96 2.48Q185.64 1.81 186.56 1.40Q187.48 1.00 188.50 1.00L205.49 1.00Q206.52 1.00 207.43 1.40Q208.35 1.81 209.03 2.48Q209.72 3.15 210.11 4.06Q210.50 4.98 210.50 6.01L210.50 10.52L205.49 10.52L205.49 6.01L188.50 6.01L188.50 16.02L205.49 16.02Q206.52 16.02 207.43 16.41Q208.35 16.80 209.03 17.48Q209.72 18.16 210.11 19.08Q210.50 20.00 210.50 21.02L210.50 31.01Q210.50 32.03 210.11 32.95Q209.72 33.86 209.03 34.55Q208.35 35.23 207.43 35.62Q206.52 36.01 205.49 36.01L188.01 36.01Q186.99 36.01 186.07 35.62Q185.16 35.23 184.47 34.55Q183.79 33.86 183.40 32.95Q183.01 32.03 183.01 31.01L183.01 26.51L188.01 26.51L188.01 31.01L205.49 31.01L205.49 21.02L188.50 21.02Z"/></g></g></svg>